<?xml version="1.0" encoding="UTF-8"?>
<svg width="12px" height="12px" viewBox="0 0 12 12" version="1.1" xmlns="http://www.w3.org/2000/svg" xmlns:xlink="http://www.w3.org/1999/xlink">
    <!-- Generator: Sketch 48.2 (47327) - http://www.bohemiancoding.com/sketch -->
    <title>添加</title>
    <desc>Created with Sketch.</desc>
    <defs></defs>
    <g id="2_2-应用管理_工作台_吉利数据门户网站" stroke="none" stroke-width="1" fill="none" fill-rule="evenodd" transform="translate(-433.000000, -466.000000)">
        <g id="弹窗2" transform="translate(359.000000, 201.000000)" fill="#3AB483">
            <g id="Group-21" transform="translate(24.000000, 215.000000)">
                <g id="Group-Copy-12" transform="translate(12.000000, 50.000000)">
                    <g id="Group-12">
                        <g id="Group-6">
                            <g id="Group-29">
                                <g id="添加" transform="translate(38.000000, 0.000000)">
                                    <path d="M5.99929642,10.0382783 C5.72423188,10.0382783 5.49937193,9.81341835 5.49937193,9.53835381 L5.50007903,6.49991597 L2.46340896,6.50239085 C2.18834443,6.50239085 1.96348447,6.27753089 1.96348447,6.00246635 C1.96348447,5.72740182 2.18834443,5.50254186 2.46340896,5.50254186 L5.50043259,5.49971343 L5.50113969,2.46481113 C5.50113969,2.18974659 5.72599965,1.96488663 6.00106419,1.96488663 C6.27612873,1.96488663 6.50098868,2.18974659 6.50098868,2.46481113 L6.50028158,5.49900633 L9.53518388,5.4961779 C9.81024842,5.4961779 10.0351084,5.72103786 10.0351084,5.99610239 C10.0351084,6.27116693 9.80989487,6.49638044 9.53518388,6.49602689 L6.50028158,6.49885531 L6.49922092,9.53128275 C6.49922092,9.80634728 6.27436096,10.0382783 5.99929642,10.0382783 M6,0 C2.686,0 0,2.6865 0,6 C0,9.314 2.686,12 6,12 C9.3135,12 12,9.314 12,6 C12,2.6865 9.3135,0 6,0"></path>
                                </g>
                            </g>
                        </g>
                    </g>
                </g>
            </g>
        </g>
    </g>
</svg>