<?xml version="1.0" encoding="UTF-8"?>
<svg width="12px" height="12px" viewBox="0 0 12 12" version="1.1" xmlns="http://www.w3.org/2000/svg" xmlns:xlink="http://www.w3.org/1999/xlink">
    <!-- Generator: Sketch 48.2 (47327) - http://www.bohemiancoding.com/sketch -->
    <title>箭头_上_选中</title>
    <desc>Created with Sketch.</desc>
    <defs></defs>
    <g id="2_1-工作台_吉利数据门户网站_hover" stroke="none" stroke-width="1" fill="none" fill-rule="evenodd" transform="translate(-1223.000000, -158.000000)">
        <g id="箭头_上_选中" transform="translate(1223.000000, 158.000000)">
            <g>
                <rect id="Rectangle-3-Copy-2" x="0" y="0" width="12" height="12"></rect>
                <path d="M9.00008055,5.99952222 C9.00058055,5.95902222 8.99358055,5.92052222 8.98458055,5.88102222 C8.98058055,5.86402222 8.97808055,5.84752222 8.97208055,5.83102222 C8.94508055,5.74952222 8.90508055,5.67252222 8.83758055,5.61202222 L3.83158055,1.12652222 C3.62558055,0.94202222 3.30758055,0.96152222 3.12508055,1.17052222 C2.94258055,1.37952222 2.96208055,1.70152222 3.16858055,1.88652222 L7.75908055,5.99952222 L3.16858055,10.1135222 C2.96208055,10.2985222 2.94258055,10.6205222 3.12508055,10.8295222 C3.30758055,11.0385222 3.62558055,11.0580222 3.83158055,10.8735222 L8.83758055,6.38702222 C8.90508055,6.32652222 8.94508055,6.24952222 8.97208055,6.16802222 C8.97808055,6.15152222 8.98058055,6.13502222 8.98458055,6.11802222 C8.99358055,6.07852222 9.00058055,6.04002222 9.00008055,5.99952222" id="Fill-1-Copy-2" fill="#292C4B" transform="translate(6.000053, 6.000022) rotate(-90.000000) translate(-6.000053, -6.000022) "></path>
            </g>
        </g>
    </g>
</svg>