<?xml version="1.0" encoding="UTF-8"?>
<svg width="72px" height="72px" viewBox="0 0 72 72" version="1.1" xmlns="http://www.w3.org/2000/svg" xmlns:xlink="http://www.w3.org/1999/xlink">
    <!-- Generator: Sketch 48.2 (47327) - http://www.bohemiancoding.com/sketch -->
    <title>数据资产_Icon</title>
    <desc>Created with Sketch.</desc>
    <defs>
        <rect id="path-1" x="0" y="0" width="72" height="72" rx="4"></rect>
        <path d="M0.0306031655,21.7391304 L0,21.7391304 L0,3.26086957 L0.0306031655,3.26086957 C0.443030943,1.43683486 4.97277597,0 10.5,0 C16.027224,0 20.5569691,1.43683486 20.9693968,3.26086957 L21,3.26086957 L21,21.7391304 L20.9693968,21.7391304 C20.5569691,23.5631651 16.027224,25 10.5,25 C4.97277597,25 0.443030943,23.5631651 0.0306031655,21.7391304 Z" id="path-2"></path>
        <path d="M20.9693968,17.576087 C20.5569691,19.4913234 16.027224,21 10.5,21 C4.97277597,21 0.443030943,19.4913234 0.0306031655,17.576087 L0,17.576087 L0,3.70923913 C0,1.66068293 4.70101013,0 10.5,0 C16.2989899,0 21,1.66068293 21,3.70923913 L21,17.576087 L20.9693968,17.576087 Z" id="path-3"></path>
    </defs>
    <g id="1-吉利数据门户网站" stroke="none" stroke-width="1" fill="none" fill-rule="evenodd" transform="translate(-215.000000, -629.000000)">
        <g id="数据资产" transform="translate(107.000000, 604.000000)">
            <g id="数据资产_Icon" transform="translate(108.000000, 25.000000)">
                <g id="Rectangle-42-Copy" opacity="0">
                    <use fill="#FFFFFF" fill-rule="evenodd" xlink:href="#path-1"></use>
                    <rect stroke="#D6DAE6" stroke-width="1" x="0.5" y="0.5" width="71" height="71" rx="4"></rect>
                </g>
                <g id="数据资产" transform="translate(7.000000, 1.000000)">
                    <g>
                        <g>
                            <path d="M1,61 C1,62.1045695 1.8954305,63 3,63 L45,63 C46.1045695,63 47,62.1045695 47,61 L47,3 C47,1.8954305 46.1045695,1 45,1 L40.7142857,1 C39.6097162,1 38.7142857,1.8954305 38.7142857,3 L38.7142857,4 C38.7142857,6.209139 36.9234247,8 34.7142857,8 L13.2857143,8 C11.0765753,8 9.28571429,6.209139 9.28571429,4 L9.28571429,3 C9.28571429,1.8954305 8.39028379,1 7.28571429,1 L3,1 C1.8954305,1 1,1.8954305 1,3 L1,61 Z" id="Path-4" stroke="#CECECE" stroke-width="2"></path>
                            <path d="M8,16 L40,16" id="Path-7" stroke="#CECECE" stroke-width="2" stroke-linecap="round"></path>
                            <path d="M16,2 L32,2" id="Path-7-Copy" stroke="#CECECE" stroke-width="2" stroke-linecap="round"></path>
                            <path d="M8,32 L40,32" id="Path-8" stroke="#CECECE" stroke-width="2" stroke-linecap="round"></path>
                            <path d="M8,24 L40,24" id="Path-8-Copy" stroke="#CECECE" stroke-width="2" stroke-linecap="round"></path>
                            <path d="M8,40 L40,40" id="Path-9" stroke="#CECECE" stroke-width="2" stroke-linecap="round"></path>
                            <circle id="Oval-3" fill="#FFFFFF" cx="35.5" cy="45.5" r="22.5"></circle>
                            <g id="Group-23-Copy" transform="translate(20.000000, 31.000000)">
                                <g id="Combined-Shape">
                                    <use fill="#F17A1E" fill-rule="evenodd" xlink:href="#path-2"></use>
                                    <path stroke="#F17A1E" stroke-width="0.8" d="M0.4,21.5591247 L0.420754322,21.6509144 C0.775347405,23.2191649 5.18416913,24.6 10.5,24.6 C15.8158309,24.6 20.2246526,23.2191649 20.5792457,21.6509144 L20.6,21.5591247 L20.6,3.44087529 L20.5792457,3.34908564 C20.2246526,1.78083508 15.8158309,0.4 10.5,0.4 C5.18416913,0.4 0.775347405,1.78083508 0.420754322,3.34908564 L0.4,3.44087529 L0.4,21.5591247 Z"></path>
                                </g>
                                <g id="Group-22" transform="translate(2.739130, 6.250000)" stroke="#FFFFFF" stroke-linecap="round" stroke-width="1.6">
                                    <path d="M0,13.3928571 C2.58695652,14.5833333 5.17391304,15.1785714 7.76086957,15.1785714 C10.3478261,15.1785714 12.9347826,14.5833333 15.5217391,13.3928571" id="Path-3"></path>
                                    <path d="M0,8.92857143 C2.58695652,10.1190476 5.17391304,10.7142857 7.76086957,10.7142857 C10.3478261,10.7142857 12.9347826,10.1190476 15.5217391,8.92857143" id="Path-3-Copy"></path>
                                    <path d="M0,4.46428571 C2.58695652,5.6547619 5.17391304,6.25 7.76086957,6.25 C10.3478261,6.25 12.9347826,5.6547619 15.5217391,4.46428571" id="Path-3-Copy-2"></path>
                                    <path d="M0,0 C2.58695652,1.19047619 5.17391304,1.78571429 7.76086957,1.78571429 C10.3478261,1.78571429 12.9347826,1.19047619 15.5217391,0" id="Path-3-Copy-3"></path>
                                </g>
                            </g>
                            <g id="Group-24-Copy" transform="translate(35.000000, 43.000000)">
                                <g id="Combined-Shape">
                                    <use fill="#F17A1E" fill-rule="evenodd" xlink:href="#path-3"></use>
                                    <path stroke="#F17A1E" stroke-width="0.8" d="M20.6,17.3913916 L20.6,3.70923913 C20.6,1.99479463 16.0855044,0.4 10.5,0.4 C4.91449556,0.4 0.4,1.99479463 0.4,3.70923913 L0.4,17.3913916 L0.421639437,17.4918811 C0.779146331,19.1520753 5.1820319,20.6 10.5,20.6 C15.8179681,20.6 20.2208537,19.1520753 20.5783606,17.4918811 L20.6,17.3913916 Z"></path>
                                </g>
                                <path d="M1.84417574,15.9615478 C1.40517503,15.6913935 1.26829796,15.1165098 1.53845224,14.6775091 C1.80860652,14.2385084 2.38349022,14.1016313 2.82249093,14.3717856 C5.20886368,15.8403226 7.56948174,16.5666667 9.91666667,16.5666667 C12.2638516,16.5666667 14.6244697,15.8403226 17.0108424,14.3717856 C17.4498431,14.1016313 18.0247268,14.2385084 18.2948811,14.6775091 C18.5650354,15.1165098 18.4281583,15.6913935 17.9891576,15.9615478 C15.3199748,17.6041218 12.6250373,18.4333333 9.91666667,18.4333333 C7.20829603,18.4333333 4.51335854,17.6041218 1.84417574,15.9615478 Z" id="Path-3-Copy-2" fill="#FFFFFF" fill-rule="nonzero"></path>
                                <path d="M1.84417574,11.2948811 C1.40517503,11.0247268 1.26829796,10.4498431 1.53845224,10.0108424 C1.80860652,9.5718417 2.38349022,9.43496462 2.82249093,9.7051189 C5.20886368,11.173656 7.56948174,11.9 9.91666667,11.9 C12.2638516,11.9 14.6244697,11.173656 17.0108424,9.7051189 C17.4498431,9.43496462 18.0247268,9.5718417 18.2948811,10.0108424 C18.5650354,10.4498431 18.4281583,11.0247268 17.9891576,11.2948811 C15.3199748,12.9374551 12.6250373,13.7666667 9.91666667,13.7666667 C7.20829603,13.7666667 4.51335854,12.9374551 1.84417574,11.2948811 Z" id="Path-3-Copy-3" fill="#FFFFFF" fill-rule="nonzero"></path>
                                <path d="M1.84417574,6.62821443 C1.40517503,6.35806015 1.26829796,5.78317644 1.53845224,5.34417574 C1.80860652,4.90517503 2.38349022,4.76829796 2.82249093,5.03845224 C5.20886368,6.50698931 7.56948174,7.23333333 9.91666667,7.23333333 C12.2638516,7.23333333 14.6244697,6.50698931 17.0108424,5.03845224 C17.4498431,4.76829796 18.0247268,4.90517503 18.2948811,5.34417574 C18.5650354,5.78317644 18.4281583,6.35806015 17.9891576,6.62821443 C15.3199748,8.27078846 12.6250373,9.1 9.91666667,9.1 C7.20829603,9.1 4.51335854,8.27078846 1.84417574,6.62821443 Z" id="Path-3-Copy-4" fill="#FFFFFF" fill-rule="nonzero"></path>
                            </g>
                        </g>
                    </g>
                </g>
            </g>
        </g>
    </g>
</svg>