<?xml version="1.0" encoding="UTF-8"?>
<svg width="12px" height="12px" viewBox="0 0 12 12" version="1.1" xmlns="http://www.w3.org/2000/svg" xmlns:xlink="http://www.w3.org/1999/xlink">
    <!-- Generator: Sketch 48.2 (47327) - http://www.bohemiancoding.com/sketch -->
    <title>删除</title>
    <desc>Created with Sketch.</desc>
    <defs></defs>
    <g id="2_2-应用管理_工作台_吉利数据门户网站" stroke="none" stroke-width="1" fill="none" fill-rule="evenodd" transform="translate(-433.000000, -304.000000)">
        <g id="弹窗2" transform="translate(359.000000, 201.000000)" fill="#E0563D">
            <g id="Group-22" transform="translate(24.000000, 55.000000)">
                <g id="Group-Copy-5" transform="translate(12.000000, 48.000000)">
                    <g id="Group-8">
                        <g id="Group-2">
                            <g id="错误_选中" transform="translate(38.000000, 0.000000)">
                                <path d="M8.855,8.856 C8.6605,9.0505 8.3425,9.0505 8.148,8.856 L6,6.707 L3.8545,8.856 C3.66,9.0505 3.342,9.0505 3.1475,8.856 C2.953,8.6615 2.953,8.3435 3.1475,8.149 L5.293,5.9995 L3.1475,3.853 C2.953,3.6585 2.953,3.3405 3.1475,3.146 C3.342,2.9515 3.66,2.9515 3.8545,3.146 L5.9995,5.292 L8.1435,3.144 C8.338,2.9495 8.656,2.9495 8.8505,3.144 C9.045,3.3385 9.045,3.657 8.8505,3.851 L6.7065,5.999 L8.85,8.144 C9.0445,8.3385 9.0495,8.6615 8.855,8.856 M6,0 C2.686,0 0,2.6865 0,6 C0,9.314 2.686,12 6,12 C9.3135,12 12,9.314 12,6 C12,2.6865 9.3135,0 6,0" id="删除"></path>
                            </g>
                        </g>
                    </g>
                </g>
            </g>
        </g>
    </g>
</svg>