<?xml version="1.0" encoding="utf-8"?>
<!-- Generator: Adobe Illustrator 15.0.0, SVG Export Plug-In . SVG Version: 6.00 Build 0)  -->
<!DOCTYPE svg PUBLIC "-//W3C//DTD SVG 1.1//EN" "http://www.w3.org/Graphics/SVG/1.1/DTD/svg11.dtd">
<svg version="1.1" id="图层_1" xmlns="http://www.w3.org/2000/svg" xmlns:xlink="http://www.w3.org/1999/xlink" x="0px" y="0px"
	 width="274.334px" height="69px" viewBox="0 0 274.334 69" enable-background="new 0 0 274.334 69" xml:space="preserve">
<title>吉利数据logo</title>
<desc>Created with Sketch.</desc>
<g id="Page-1">
	<path id="Combined-Shape-Copy-2" fill="#FFFFFF" d="M27,34v-3h3v6h-3v3H16.795c-0.117,0.008-0.245,0.012-0.385,0.012l0.196,10.65
		h33.017c1.762,0,2.766-0.711,2.766-2.52v-27.3c0-1.806-1.004-2.515-2.766-2.515H1.6c-1.66,0-1.6-0.482-1.6-1.738V7.735
		C0,6.478-0.06,6,1.6,6h48.785C61.942,6,69,9.622,69,21.637v25.714c0,12.018-7.058,15.645-18.615,15.645H1.6
		c-1.66,0-1.6-0.488-1.6-1.742V29.742c0-1.256-0.06-1.738,1.6-1.738H15L21,28v3h-2.994v3H21v3h3v-3H27z M21,31h3v3h-3V31z M24,28h3
		v3h-3V28z M30,37h3v3h-3V37z M33,34h3v3h-3V34z M36,28h3v3h-3V28z M30,28h3v3h-3V28z"/>
</g>
<text transform="matrix(1 0 0 1 94 47.9995)" fill="#FFFFFF" font-family="'MicrosoftYaHei'" font-size="44">企业大脑</text>
</svg>
