<?xml version="1.0" encoding="UTF-8"?>
<svg width="46px" height="43px" viewBox="0 0 46 43" version="1.1" xmlns="http://www.w3.org/2000/svg" xmlns:xlink="http://www.w3.org/1999/xlink">
    <!-- Generator: Sketch 48.2 (47327) - http://www.bohemiancoding.com/sketch -->
    <title>管理</title>
    <desc>Created with Sketch.</desc>
    <defs></defs>
    <g id="2_1-工作台_吉利数据门户网站_hover" stroke="none" stroke-width="1" fill="none" fill-rule="evenodd" transform="translate(-896.000000, -510.000000)">
        <g id="Group-Copy-8" transform="translate(867.000000, 479.000000)" fill="#515152">
            <g id="Group-19" transform="translate(16.000000, 16.000000)">
                <g id="管理" transform="translate(13.000000, 15.000000)">
                    <path d="M45.5186363,17.0552856 C45.2695298,15.752961 44.4828289,14.9181911 43.5226784,14.9393842 L43.3228646,14.9393842 C40.0250112,14.9393842 37.3417307,12.2831259 37.3417307,9.01868004 C37.3417307,7.94300305 37.8584451,6.76306158 37.8623436,6.75436197 C38.3718556,5.61942299 37.9797606,4.22689714 36.9509572,3.51653823 L36.8941319,3.47696483 L31.1429425,0.31423243 L31.082549,0.288199019 C30.7418612,0.141286854 30.367871,0.0671766664 29.970622,0.0671766664 C29.1521386,0.0671766664 28.3486543,0.39089363 27.8228876,0.93157749 C27.1205657,1.64900074 24.9062927,3.5114362 23.1203905,3.5114362 C21.3172424,3.5114362 19.0894899,1.61145507 18.3848554,0.881211343 C17.8557187,0.329342274 17.0468163,0 16.2198751,0 C15.8308856,0 15.4638334,0.0714937647 15.1282995,0.213042261 L15.0663863,0.239402725 L9.11174889,3.47696483 L9.05320555,3.51706151 C8.02149481,4.22663549 7.62814436,5.61863806 8.13666529,6.75181096 C8.14208352,6.76358486 8.65826927,7.94326469 8.65826927,9.01868004 C8.65826927,12.2831259 5.9752531,14.9393842 2.67739971,14.9393842 L2.47732157,14.9393842 C1.51584962,14.9168829 0.729941623,15.7531572 0.481363694,17.0552856 C0.46173912,17.1579802 0,19.5968137 0,21.5182496 C0,23.4394237 0.46173912,25.878061 0.481363694,25.9810172 C0.727364659,27.266466 1.49648935,28.0973766 2.44117799,28.0973766 C2.45307167,28.0973766 2.46522966,28.0971149 2.47732157,28.0968533 L2.67759794,28.0968533 C5.9752531,28.0968533 8.65826927,30.7529153 8.65826927,34.0175574 C8.65826927,35.0929728 8.14181922,36.2731759 8.13792073,36.2816138 C7.62867296,37.4158333 8.01971076,38.8080975 9.0469944,39.5199609 L9.10302686,39.5588148 L14.7449926,42.68217 L14.8046592,42.7079418 C15.1448185,42.8559005 15.5172889,42.9307956 15.9121591,42.9307956 C16.7404879,42.9307956 17.5483332,42.5939965 18.0725802,42.0298303 C18.7338688,41.3184902 21.0364194,39.2867067 22.8798738,39.2867067 C24.736147,39.2867067 27.0036773,41.3065201 27.7194126,42.0832707 C28.244915,42.6571177 29.0582446,42.9994767 29.8950311,43 L29.8952954,43 C30.2819061,43 30.6479011,42.9274597 30.9824439,42.784603 L31.0431017,42.7585695 L36.8912906,39.5588148 L36.9491071,39.5189797 C37.9789677,38.8088825 38.371327,37.4166182 37.8633347,36.2839032 C37.8581808,36.2721947 37.341995,35.0927765 37.341995,34.0175574 C37.341995,30.7529153 40.0250112,28.0966571 43.3228646,28.0966571 L43.5226784,28.0966571 C44.4828289,28.1162802 45.2697941,27.282557 45.518372,25.9810172 C45.5385252,25.878061 46,23.4391621 46,21.5179879 C46,19.5965521 45.5385252,17.1582419 45.5186363,17.0552856 Z M43.8290493,25.6567288 C43.6995047,26.3342381 43.3959332,26.6483361 43.231336,26.6483361 L43.0016413,26.6480786 C39.0070225,26.6480786 35.7571554,29.8651533 35.7571554,33.8198659 C35.7571554,35.1162365 36.3178002,36.4374568 36.3815971,36.5838514 C36.6241682,37.1247515 36.4338832,37.798205 35.9535534,38.1303931 L30.3142637,41.2154938 C30.1595515,41.2816096 29.9807122,41.3160516 29.7865903,41.3160516 C29.3461255,41.3156009 28.9111884,41.1392708 28.6513187,40.8551083 C28.5281472,40.7215893 25.6756284,37.6614027 22.8815088,37.6614027 C20.0965587,37.6614027 17.1797228,40.7635635 17.1507834,40.7950441 C16.8913689,41.0744426 16.4595534,41.2476826 16.0238359,41.2476826 C15.8254869,41.2476826 15.6430708,41.2124681 15.4815302,41.1428116 L10.0441663,38.1326463 C9.56533226,37.8007157 9.37556754,37.1247515 9.61384647,36.5941518 L9.60571742,36.6114693 C9.63036472,36.5576497 10.2428404,35.1896269 10.2428404,33.8198659 C10.2428404,29.8654108 6.99297332,26.6480786 2.99835448,26.6480786 L2.76560331,26.6485936 C2.6023068,26.6485936 2.30049115,26.3342381 2.17120662,25.6600121 C2.15338773,25.5654414 1.72131207,23.2647167 1.72131207,21.5179608 C1.72131207,19.7709474 2.15338773,17.4702227 2.17172688,17.3731413 C2.2943781,16.7303959 2.59463297,16.3871349 2.76410756,16.3871349 L2.99835448,16.3873924 C6.99297332,16.3873924 10.2428404,13.1702533 10.2428404,9.21579826 C10.2428404,7.82968534 9.61462686,6.44305741 9.60825368,6.42921623 C9.37556754,5.910977 9.56611265,5.23823165 10.0464424,4.90655854 L15.7865975,1.78547079 C15.9461221,1.71838939 16.128278,1.68388302 16.3266921,1.68388302 C16.7681974,1.68388302 17.2074267,1.85589982 17.472629,2.13253013 C17.5937845,2.25800197 20.405658,5.13992714 23.1182269,5.13992714 C25.8054332,5.13992714 28.6041051,2.31233662 28.7219439,2.19188623 C28.9881868,1.91828167 29.423319,1.75032065 29.8605322,1.75032065 C30.0634985,1.75032065 30.248711,1.78547079 30.4112921,1.85519167 L35.9519927,4.90230962 C36.4349237,5.23823165 36.623908,5.91220017 36.3864095,6.44157672 C36.3845886,6.44505311 35.7568953,7.82871968 35.7568953,9.21579826 C35.7568953,13.1702533 39.0070225,16.3873924 43.0016413,16.3873924 L43.2287997,16.3871349 C43.4038021,16.3871349 43.7050975,16.7306535 43.8285291,17.3752014 C43.8334065,17.4003087 44.2784236,19.7350247 44.2784236,21.5177033 C44.2786838,23.2898884 43.8334065,25.6336173 43.8290493,25.6567288 Z" id="Fill-1"></path>
                    <path d="M22.9998673,14 C18.588754,14 15,17.5890195 15,22.0001327 C15,26.411246 18.588754,30 22.9998673,30 C27.4111796,30 31,26.411246 31,22.0001327 C31,17.5890195 27.4109141,14 22.9998673,14 Z M22.9998721,28.2915804 C19.530788,28.2915804 16.7083613,25.4691538 16.7083613,22.0001327 C16.7083613,18.5311117 19.530788,15.7086851 22.9998721,15.7086851 C26.4691457,15.7086851 29.2915723,18.5311117 29.2915723,22.0001327 C29.2915723,25.4691538 26.4691457,28.2915804 22.9998721,28.2915804 Z" id="Fill-2"></path>
                </g>
            </g>
        </g>
    </g>
</svg>