<?xml version="1.0" encoding="UTF-8"?>
<svg width="12px" height="12px" viewBox="0 0 12 12" version="1.1" xmlns="http://www.w3.org/2000/svg" xmlns:xlink="http://www.w3.org/1999/xlink">
    <!-- Generator: Sketch 48.2 (47327) - http://www.bohemiancoding.com/sketch -->
    <title>应用</title>
    <desc>Created with Sketch.</desc>
    <defs></defs>
    <g id="2_1-工作台_吉利数据门户网站_hover" stroke="none" stroke-width="1" fill="none" fill-rule="evenodd" transform="translate(-1268.000000, -24.000000)" opacity="0.800000012">
        <g id="工作台" transform="translate(1252.000000, 0.000000)" fill="#FFFFFF">
            <g id="应用" transform="translate(16.000000, 24.000000)">
                <path d="M1.5,7.5 C1.2245,7.5 1,7.724 1,8 L1,10.5 C1,10.776 1.2245,11 1.5,11 L3.967,11 C4.2425,11 4.467,10.776 4.467,10.5 L4.467,8 C4.467,7.724 4.2425,7.5 3.967,7.5 L1.5,7.5 Z M3.967,12 L1.5,12 C0.673,12 0,11.327 0,10.5 L0,8 C0,7.173 0.673,6.5 1.5,6.5 L3.967,6.5 C4.794,6.5 5.467,7.173 5.467,8 L5.467,10.5 C5.467,11.327 4.794,12 3.967,12 L3.967,12 Z" id="Fill-1"></path>
                <path d="M7.9668,7.5 C7.6908,7.5 7.4668,7.724 7.4668,8 L7.4668,10.5 C7.4668,10.776 7.6908,11 7.9668,11 L10.4668,11 C10.7428,11 10.9668,10.776 10.9668,10.5 L10.9668,8 C10.9668,7.724 10.7428,7.5 10.4668,7.5 L7.9668,7.5 Z M10.4668,12 L7.9668,12 C7.1398,12 6.4668,11.327 6.4668,10.5 L6.4668,8 C6.4668,7.173 7.1398,6.5 7.9668,6.5 L10.4668,6.5 C11.2938,6.5 11.9668,7.173 11.9668,8 L11.9668,10.5 C11.9668,11.327 11.2938,12 10.4668,12 L10.4668,12 Z" id="Fill-3"></path>
                <path d="M1.5,1 C1.2245,1 1,1.2245 1,1.5 L1,4 C1,4.2755 1.2245,4.5 1.5,4.5 L3.967,4.5 C4.2425,4.5 4.467,4.2755 4.467,4 L4.467,1.5 C4.467,1.2245 4.2425,1 3.967,1 L1.5,1 Z M3.967,5.5 L1.5,5.5 C0.673,5.5 0,4.827 0,4 L0,1.5 C0,0.673 0.673,0 1.5,0 L3.967,0 C4.794,0 5.467,0.673 5.467,1.5 L5.467,4 C5.467,4.827 4.794,5.5 3.967,5.5 L3.967,5.5 Z" id="Fill-5"></path>
                <path d="M7.9668,1 C7.6908,1 7.4668,1.2245 7.4668,1.5 L7.4668,4 C7.4668,4.2755 7.6908,4.5 7.9668,4.5 L10.4668,4.5 C10.7428,4.5 10.9668,4.2755 10.9668,4 L10.9668,1.5 C10.9668,1.2245 10.7428,1 10.4668,1 L7.9668,1 Z M10.4668,5.5 L7.9668,5.5 C7.1398,5.5 6.4668,4.827 6.4668,4 L6.4668,1.5 C6.4668,0.673 7.1398,0 7.9668,0 L10.4668,0 C11.2938,0 11.9668,0.673 11.9668,1.5 L11.9668,4 C11.9668,4.827 11.2938,5.5 10.4668,5.5 L10.4668,5.5 Z" id="Fill-7"></path>
            </g>
        </g>
    </g>
</svg>