<?xml version="1.0" standalone="no"?><!DOCTYPE svg PUBLIC "-//W3C//DTD SVG 1.1//EN" "http://www.w3.org/Graphics/SVG/1.1/DTD/svg11.dtd"><svg t="1536047188048" class="icon" style="" viewBox="0 0 1024 1024" version="1.1" xmlns="http://www.w3.org/2000/svg" p-id="4495" xmlns:xlink="http://www.w3.org/1999/xlink" width="200" height="200"><defs><style type="text/css"></style></defs><path d="M108.169014 901.408451a28.84507 28.84507 0 0 0 28.845071 28.84507h605.746478a28.84507 28.84507 0 0 0 28.845071-28.84507v-836.507043a28.84507 28.84507 0 0 0-28.845071-28.84507h-61.872676a28.84507 28.84507 0 0 0-28.84507 28.84507v14.422536a57.690141 57.690141 0 0 1-57.690141 57.690141H285.421972a57.690141 57.690141 0 0 1-57.690141-57.690141v-14.422536a28.84507 28.84507 0 0 0-28.84507-28.84507H137.014085a28.84507 28.84507 0 0 0-28.845071 28.84507z" fill="#FFFFFF" p-id="4496"></path><path d="M742.760563 944.676056h-605.746478a43.267606 43.267606 0 0 1-43.267606-43.267605v-836.507043a43.267606 43.267606 0 0 1 43.267606-43.267605h61.872676a43.267606 43.267606 0 0 1 43.267605 43.267605v14.422536a43.267606 43.267606 0 0 0 43.267606 43.267605h308.930704a43.267606 43.267606 0 0 0 43.267606-43.267605v-14.422536a43.267606 43.267606 0 0 1 43.267605-43.267605h61.872676a43.267606 43.267606 0 0 1 43.267606 43.267605v836.507043a43.267606 43.267606 0 0 1-43.267606 43.267605z m-605.746478-894.197183a14.422535 14.422535 0 0 0-14.422536 14.422535v836.507043a14.422535 14.422535 0 0 0 14.422536 14.422535h605.746478a14.422535 14.422535 0 0 0 14.422536-14.422535v-836.507043a14.422535 14.422535 0 0 0-14.422536-14.422535h-61.872676a14.422535 14.422535 0 0 0-14.422535 14.422535v14.422536a72.112676 72.112676 0 0 1-72.112676 72.112676H285.421972a72.112676 72.112676 0 0 1-72.112676-72.112676v-14.422536a14.422535 14.422535 0 0 0-14.422535-14.422535z" fill="#2288EE" p-id="4497"></path><path d="M670.647887 266.816901h-461.521126a14.422535 14.422535 0 0 1 0-28.84507h461.521126a14.422535 14.422535 0 0 1 0 28.84507zM555.267606 64.901408h-230.760564a14.422535 14.422535 0 0 1 0-28.84507h230.760564a14.422535 14.422535 0 0 1 0 28.84507zM670.647887 497.577465h-461.521126a14.422535 14.422535 0 0 1 0-28.845071h461.521126a14.422535 14.422535 0 0 1 0 28.845071zM670.647887 382.197183h-461.521126a14.422535 14.422535 0 0 1 0-28.84507h461.521126a14.422535 14.422535 0 0 1 0 28.84507zM670.647887 612.957746h-461.521126a14.422535 14.422535 0 0 1 0-28.84507h461.521126a14.422535 14.422535 0 0 1 0 28.84507z" fill="#2288EE" p-id="4498"></path><path d="M605.746479 677.859155m-324.507042 0a324.507042 324.507042 0 1 0 649.014084 0 324.507042 324.507042 0 1 0-649.014084 0Z" fill="#FFFFFF" p-id="4499"></path><path d="M387.966197 779.682254v1.298028c5.192113 22.64338 68.651268 43.267606 145.379155 43.267605s140.187042-19.903099 145.379155-43.267605v-263.932395c-5.192113-22.64338-68.651268-43.267606-145.379155-43.267605s-140.187042 19.903099-145.379155 43.267605v1.298028z" fill="#2288EE" p-id="4500"></path><path d="M533.633803 829.295775c-68.939718 0-144.225352-17.595493-151.003944-47.017465V515.749859c6.634366-28.84507 82.064225-47.017465 151.003944-47.017465s144.225352 17.595493 151.003943 47.017465v266.528451C677.859155 811.700282 602.573521 829.295775 533.633803 829.295775zM393.735211 778.816901v0.721127c4.03831 18.028169 62.449577 38.075493 139.754366 38.075493s135.716056-20.047324 139.754367-38.075493V518.345915c-4.182535-18.028169-62.593803-38.075493-139.898592-38.075492s-135.716056 20.047324-139.754366 38.075492z" fill="#2288EE" p-id="4501"></path><path d="M533.633803 789.345352a280.085634 280.085634 0 0 1-116.822535-26.825915 11.682254 11.682254 0 0 1-5.624789-15.287888 11.538028 11.538028 0 0 1 15.287887-5.624788 246.048451 246.048451 0 0 0 214.318873 0 11.538028 11.538028 0 1 1 9.518874 20.912676A278.931831 278.931831 0 0 1 533.633803 789.345352zM533.633803 724.87662a279.364507 279.364507 0 0 1-116.822535-26.68169 11.682254 11.682254 0 0 1-5.624789-15.432113 11.682254 11.682254 0 0 1 15.287887-4.903662 246.048451 246.048451 0 0 0 214.318873 0 11.538028 11.538028 0 1 1 9.518874 21.056901 278.210704 278.210704 0 0 1-116.67831 25.960564zM533.633803 660.552113a280.085634 280.085634 0 0 1-116.822535-26.825916 11.538028 11.538028 0 0 1 9.663098-20.912676 246.048451 246.048451 0 0 0 214.318873 0 11.538028 11.538028 0 1 1 9.518874 20.912676A278.931831 278.931831 0 0 1 533.633803 660.552113zM533.633803 596.227606a279.508732 279.508732 0 0 1-116.822535-26.825916 11.538028 11.538028 0 0 1 9.663098-21.345352 245.183099 245.183099 0 0 0 214.318873 0 11.538028 11.538028 0 1 1 9.518874 21.056901A278.499155 278.499155 0 0 1 533.633803 596.227606z" fill="#FFFFFF" p-id="4502"></path><path d="M895.639437 892.610704V695.310423c0-24.806761-65.045634-47.738592-145.667606-47.738592s-145.667606 22.931831-145.667606 47.738592v198.742535c5.192113 23.941408 68.651268 44.854085 145.379155 44.854084s140.475493-20.912676 145.667606-44.709859z" fill="#2288EE" p-id="4503"></path><path d="M625.072676 871.986479a13.412958 13.412958 0 0 1 14.422535-22.931831 194.127324 194.127324 0 0 0 102.4 31.729577 193.983099 193.983099 0 0 0 102.255775-31.729577 13.412958 13.412958 0 0 1 18.460845 4.470986 13.268732 13.268732 0 0 1-4.326761 18.460845 220.664789 220.664789 0 0 1-116.389859 35.623662 221.097465 221.097465 0 0 1-116.822535-35.623662z" fill="#FFFFFF" p-id="4504"></path><path d="M625.072676 804.633239a13.412958 13.412958 0 0 1-4.326761-18.460845 13.268732 13.268732 0 0 1 18.460846-4.32676 195.136901 195.136901 0 0 0 102.4 31.585352 195.136901 195.136901 0 0 0 102.255774-31.585352 13.412958 13.412958 0 0 1 14.422535 22.787605 219.655211 219.655211 0 0 1-116.389859 35.767888 220.087887 220.087887 0 0 1-116.822535-35.767888z" fill="#FFFFFF" p-id="4505"></path><path d="M625.072676 737.424225a14.422535 14.422535 0 0 1-4.326761-18.60507 13.412958 13.412958 0 0 1 18.460846-4.326761 193.838873 193.838873 0 0 0 102.4 31.585352 193.838873 193.838873 0 0 0 102.255774-31.585352 13.412958 13.412958 0 0 1 14.422535 22.931831 220.664789 220.664789 0 0 1-116.389859 35.623662 221.097465 221.097465 0 0 1-116.822535-35.623662z" fill="#FFFFFF" p-id="4506"></path></svg>