<?xml version="1.0" standalone="no"?><!DOCTYPE svg PUBLIC "-//W3C//DTD SVG 1.1//EN" "http://www.w3.org/Graphics/SVG/1.1/DTD/svg11.dtd"><svg t="1536047180147" class="icon" style="" viewBox="0 0 1024 1024" version="1.1" xmlns="http://www.w3.org/2000/svg" p-id="4367" xmlns:xlink="http://www.w3.org/1999/xlink" width="200" height="200"><defs><style type="text/css"></style></defs><path d="M512 953.473803c-119.274366 0-212.732394-193.983099-212.732394-441.473803S392.725634 70.526197 512 70.526197 724.732394 264.509296 724.732394 512 631.274366 953.473803 512 953.473803z m0-854.102535C412.340282 99.371268 328.112676 288.450704 328.112676 512s84.227606 412.628732 183.887324 412.628732S695.887324 735.549296 695.887324 512 611.659718 99.371268 512 99.371268z" fill="#2288EE" p-id="4368"></path><path d="M511.134648 160.378592m-14.422535 0a14.422535 14.422535 0 1 0 28.84507 0 14.422535 14.422535 0 1 0-28.84507 0Z" fill="#2288EE" p-id="4369"></path><path d="M511.134648 160.378592m-28.845071 0a28.84507 28.84507 0 1 0 57.690141 0 28.84507 28.84507 0 1 0-57.690141 0Z" fill="#2288EE" p-id="4370"></path><path d="M511.134648 861.890704m-14.422535 0a14.422535 14.422535 0 1 0 28.84507 0 14.422535 14.422535 0 1 0-28.84507 0Z" fill="#2288EE" p-id="4371"></path><path d="M511.134648 861.890704m-28.845071 0a28.84507 28.84507 0 1 0 57.690141 0 28.84507 28.84507 0 1 0-57.690141 0Z" fill="#2288EE" p-id="4372"></path><path d="M297.248451 859.438873a132.831549 132.831549 0 0 1-97.496338-35.479436C115.380282 739.731831 186.48338 536.51831 361.428732 361.428732S739.731831 115.380282 823.959437 199.752113c84.371831 84.227606 13.268732 287.441127-161.67662 462.530704-125.187606 125.187606-264.797746 197.156056-365.034366 197.156056z m430.224225-666.032676c-91.438873 0-228.164507 71.103099-346.140845 188.502535-158.647887 158.647887-232.202817 351.188732-161.820845 421.71493s263.643944-3.605634 421.714929-161.67662 232.923944-351.332958 162.397747-421.859155a103.986479 103.986479 0 0 0-76.150986-26.68169z" fill="#2288EE" p-id="4373"></path><path d="M759.92338 262.634366m-14.422535 0a14.422535 14.422535 0 1 0 28.84507 0 14.422535 14.422535 0 1 0-28.84507 0Z" fill="#2288EE" p-id="4374"></path><path d="M759.92338 291.479437a28.84507 28.84507 0 1 1 20.335775-49.180845 28.84507 28.84507 0 0 1 8.509296 20.335774 28.84507 28.84507 0 0 1-28.845071 28.845071z m0-28.845071z" fill="#2288EE" p-id="4375"></path><path d="M263.788169 758.769577m-14.422535 0a14.422535 14.422535 0 1 0 28.84507 0 14.422535 14.422535 0 1 0-28.84507 0Z" fill="#2288EE" p-id="4376"></path><path d="M263.788169 787.614648a28.84507 28.84507 0 1 1 20.48-49.325071 28.84507 28.84507 0 0 1-20.48 49.325071z" fill="#2288EE" p-id="4377"></path><path d="M512 724.732394c-247.490704 0-441.473803-93.458028-441.473803-212.732394S264.509296 299.267606 512 299.267606s441.473803 93.458028 441.473803 212.732394S759.490704 724.732394 512 724.732394z m0-396.619718C288.450704 328.112676 99.371268 412.340282 99.371268 512S288.450704 695.887324 512 695.887324s412.628732-84.227606 412.628732-183.887324S735.549296 328.112676 512 328.112676z" fill="#2288EE" p-id="4378"></path><path d="M863.621408 511.134648m-14.422535 0a14.422535 14.422535 0 1 0 28.845071 0 14.422535 14.422535 0 1 0-28.845071 0Z" fill="#2288EE" p-id="4379"></path><path d="M863.621408 539.979718a28.84507 28.84507 0 1 1 28.845071-28.84507 28.84507 28.84507 0 0 1-28.845071 28.84507z m0-28.84507z" fill="#2288EE" p-id="4380"></path><path d="M162.109296 511.134648m-14.422535 0a14.422535 14.422535 0 1 0 28.84507 0 14.422535 14.422535 0 1 0-28.84507 0Z" fill="#2288EE" p-id="4381"></path><path d="M162.109296 539.979718a28.84507 28.84507 0 1 1 28.84507-28.84507 28.84507 28.84507 0 0 1-28.84507 28.84507z m0-28.84507z" fill="#2288EE" p-id="4382"></path><path d="M726.463099 859.438873c-100.23662 0-239.846761-72.112676-365.034367-197.156056C186.48338 487.193239 115.380282 283.979718 199.752113 199.752113s287.441127-13.268732 462.530704 161.676619S908.619718 739.731831 823.959437 823.959437a132.687324 132.687324 0 0 1-97.496338 35.479436zM296.238873 193.406197a103.986479 103.986479 0 0 0-76.150986 26.68169c-70.381972 70.526197 3.605634 263.643944 161.820845 421.859155s351.188732 232.202817 421.71493 161.67662-3.605634-263.643944-161.820845-421.71493c-117.399437-117.399437-253.980845-188.502535-345.563944-188.502535z" fill="#2288EE" p-id="4383"></path><path d="M761.077183 759.92338m-14.422535 0a14.422535 14.422535 0 1 0 28.84507 0 14.422535 14.422535 0 1 0-28.84507 0Z" fill="#2288EE" p-id="4384"></path><path d="M761.077183 788.768451a28.84507 28.84507 0 1 1 20.335775-8.509296 28.84507 28.84507 0 0 1-20.335775 8.509296z" fill="#2288EE" p-id="4385"></path><path d="M264.941972 263.788169m-14.422535 0a14.422535 14.422535 0 1 0 28.84507 0 14.422535 14.422535 0 1 0-28.84507 0Z" fill="#2288EE" p-id="4386"></path><path d="M264.941972 292.633239A28.84507 28.84507 0 0 1 245.183099 243.452394a28.84507 28.84507 0 0 1 40.815774 0 28.84507 28.84507 0 0 1 0 40.815775 28.84507 28.84507 0 0 1-21.056901 8.36507z" fill="#2288EE" p-id="4387"></path></svg>