<?xml version="1.0" standalone="no"?><!DOCTYPE svg PUBLIC "-//W3C//DTD SVG 1.1//EN" "http://www.w3.org/Graphics/SVG/1.1/DTD/svg11.dtd"><svg t="1536047167223" class="icon" style="" viewBox="0 0 1024 1024" version="1.1" xmlns="http://www.w3.org/2000/svg" p-id="4125" xmlns:xlink="http://www.w3.org/1999/xlink" width="200" height="200"><defs><style type="text/css"></style></defs><path d="M151.43662 122.591549m28.84507 0l749.971831 0q28.84507 0 28.845071 28.845071l0 634.591549q0 28.84507-28.845071 28.84507l-749.971831 0q-28.84507 0-28.84507-28.84507l0-634.591549q0-28.84507 28.84507-28.845071Z" fill="#FFFFFF" p-id="4126"></path><path d="M930.253521 829.295775h-749.971831a43.267606 43.267606 0 0 1-43.267605-43.267606v-634.591549a43.267606 43.267606 0 0 1 43.267605-43.267606h749.971831a43.267606 43.267606 0 0 1 43.267606 43.267606v634.591549a43.267606 43.267606 0 0 1-43.267606 43.267606z m-749.971831-692.28169a14.422535 14.422535 0 0 0-14.422535 14.422535v634.591549a14.422535 14.422535 0 0 0 14.422535 14.422535h749.971831a14.422535 14.422535 0 0 0 14.422535-14.422535v-634.591549a14.422535 14.422535 0 0 0-14.422535-14.422535z" fill="#2288EE" p-id="4127"></path><path d="M64.901408 209.126761m28.845071 0l749.971831 0q28.84507 0 28.84507 28.84507l0 634.591549q0 28.84507-28.84507 28.845071l-749.971831 0q-28.84507 0-28.845071-28.845071l0-634.591549q0-28.84507 28.845071-28.84507Z" fill="#FFFFFF" p-id="4128"></path><path d="M843.71831 915.830986h-749.971831a43.267606 43.267606 0 0 1-43.267606-43.267606v-634.591549a43.267606 43.267606 0 0 1 43.267606-43.267606h749.971831a43.267606 43.267606 0 0 1 43.267605 43.267606v634.591549a43.267606 43.267606 0 0 1-43.267605 43.267606z m-749.971831-692.28169a14.422535 14.422535 0 0 0-14.422535 14.422535v634.591549a14.422535 14.422535 0 0 0 14.422535 14.422535h749.971831a14.422535 14.422535 0 0 0 14.422535-14.422535v-634.591549a14.422535 14.422535 0 0 0-14.422535-14.422535z" fill="#2288EE" p-id="4129"></path><path d="M57.690141 418.253521h807.661972v14.422535H57.690141z" fill="#286AAB" p-id="4130"></path><path d="M50.478873 411.042254h822.084507v28.84507h-822.084507zM338.929577 317.295775a36.056338 36.056338 0 1 1 36.056338 36.056338 36.056338 36.056338 0 0 1-36.056338-36.056338zM173.070423 353.352113A36.056338 36.056338 0 0 1 137.014085 317.295775a36.056338 36.056338 0 0 1 72.112676 0 36.056338 36.056338 0 0 1-36.056338 36.056338z m100.957746 0a36.056338 36.056338 0 0 1-36.056338-36.056338 36.056338 36.056338 0 0 1 72.112676 0 36.056338 36.056338 0 0 1-36.056338 36.056338zM512 555.267606h-28.412394l-58.122817 173.070422h28.556619l57.978592-173.070422z" fill="#2288EE" p-id="4131"></path><path d="M459.213521 735.549296h-43.267606l63.026479-187.492958h43.267606z m-23.652958-14.422535h13.268733l53.074929-158.647888h-13.124507z" fill="#2288EE" p-id="4132"></path><path d="M627.380282 612.957746l0.144225 24.22986 73.84338 32.450704-73.410704 35.479436v23.220282l114.80338-49.32507V659.109859l-115.380281-46.152113z" fill="#2288EE" p-id="4133"></path><path d="M620.169014 739.299155v-38.79662l63.459155-30.575774-63.459155-27.979719v-39.661972l129.802817 51.921127v28.845071z m14.422535-29.710423v7.788169l100.957747-43.267605V663.43662l-100.957747-40.238874v8.941972l83.939155 36.777465z" fill="#2288EE" p-id="4134"></path><path d="M194.704225 668.917183v10.095775l114.803381 49.32507v-23.220282l-73.55493-35.479436 73.987606-32.450704 0.144225-24.22986-115.380282 46.152113v9.807324z" fill="#2288EE" p-id="4135"></path><path d="M317.295775 739.299155l-129.802817-55.670986v-28.84507l129.802817-51.921127v39.661972l-63.891831 27.979718L317.295775 700.502535z m-115.380282-65.045634l100.957746 43.267606v-7.932395l-83.506478-40.238873L302.873239 632.572394v-8.941971L201.915493 663.43662v10.384225z" fill="#2288EE" p-id="4136"></path></svg>