<?xml version="1.0" standalone="no"?><!DOCTYPE svg PUBLIC "-//W3C//DTD SVG 1.1//EN" "http://www.w3.org/Graphics/SVG/1.1/DTD/svg11.dtd"><svg t="1536047173708" class="icon" style="" viewBox="0 0 1024 1024" version="1.1" xmlns="http://www.w3.org/2000/svg" p-id="4244" xmlns:xlink="http://www.w3.org/1999/xlink" width="200" height="200"><defs><style type="text/css"></style></defs><path d="M108.169014 36.056338m43.267606 0l576.901408 0q43.267606 0 43.267606 43.267606l0 807.661971q0 43.267606-43.267606 43.267606l-576.901408 0q-43.267606 0-43.267606-43.267606l0-807.661971q0-43.267606 43.267606-43.267606Z" fill="#FFFFFF" p-id="4245"></path><path d="M728.338028 944.676056h-576.901408a57.690141 57.690141 0 0 1-57.690141-57.690141v-807.661971a57.690141 57.690141 0 0 1 57.690141-57.690141h576.901408a57.690141 57.690141 0 0 1 57.690141 57.690141v807.661971a57.690141 57.690141 0 0 1-57.690141 57.690141z m-576.901408-894.197183a28.84507 28.84507 0 0 0-28.845071 28.845071v807.661971a28.84507 28.84507 0 0 0 28.845071 28.845071h576.901408a28.84507 28.84507 0 0 0 28.845071-28.845071v-807.661971a28.84507 28.84507 0 0 0-28.845071-28.845071z" fill="#2288EE" p-id="4246"></path><path d="M670.647887 165.859155h-461.521126a14.422535 14.422535 0 0 1 0-28.84507h461.521126a14.422535 14.422535 0 0 1 0 28.84507zM670.647887 396.619718h-461.521126a14.422535 14.422535 0 0 1 0-28.84507h461.521126a14.422535 14.422535 0 0 1 0 28.84507zM670.647887 281.239437h-461.521126a14.422535 14.422535 0 0 1 0-28.845071h461.521126a14.422535 14.422535 0 0 1 0 28.845071zM670.647887 512h-461.521126a14.422535 14.422535 0 0 1 0-28.84507h461.521126a14.422535 14.422535 0 0 1 0 28.84507zM670.647887 627.380282h-461.521126a14.422535 14.422535 0 0 1 0-28.845071h461.521126a14.422535 14.422535 0 0 1 0 28.845071zM670.647887 742.760563h-461.521126a14.422535 14.422535 0 0 1 0-28.84507h461.521126a14.422535 14.422535 0 0 1 0 28.84507z" fill="#2288EE" p-id="4247"></path><path d="M605.746479 677.859155m-324.507042 0a324.507042 324.507042 0 1 0 649.014084 0 324.507042 324.507042 0 1 0-649.014084 0Z" fill="#FFFFFF" p-id="4248"></path><path d="M815.450141 851.939155L923.042254 959.242817A25.239437 25.239437 0 0 1 887.130141 995.15493l-107.447887-107.447888a276.48 276.48 0 1 1 35.767887-35.623662zM605.746479 915.830986A237.971831 237.971831 0 1 0 367.774648 677.859155 237.971831 237.971831 0 0 0 605.746479 915.830986z" fill="#2288EE" p-id="4249"></path><path d="M597.95831 669.061408a17.739718 17.739718 0 0 1-10.528451-3.461408l-85.814084-65.189859a17.307042 17.307042 0 1 1 20.76845-27.547042l73.843381 55.959436 100.092394-101.823098A17.307042 17.307042 0 0 1 721.126761 551.229296L610.217465 663.43662a16.874366 16.874366 0 0 1-12.259155 5.624788z" fill="#2288EE" p-id="4250"></path><path d="M670.647887 529.307042l55.382536-7.932394-7.932395 55.382535-47.450141-47.450141z" fill="#2288EE" p-id="4251"></path><path d="M722.280563 589.016338l-63.891831-63.891831 74.420282-10.528451zM682.907042 533.633803l31.152676 31.152676 5.192113-36.344789zM497.577465 670.647887a14.422535 14.422535 0 0 1 14.422535 14.422536v57.69014a14.422535 14.422535 0 0 1-14.422535 14.422536 14.422535 14.422535 0 0 1-14.422535-14.422536v-57.69014a14.422535 14.422535 0 0 1 14.422535-14.422536z" fill="#2288EE" p-id="4252"></path><path d="M497.577465 762.952113a20.191549 20.191549 0 0 1-20.19155-20.19155v-57.69014a20.191549 20.191549 0 0 1 40.383099 0v57.69014a20.191549 20.191549 0 0 1-20.191549 20.19155z m0-86.535212a8.653521 8.653521 0 0 0-8.653521 8.653522v57.69014a8.653521 8.653521 0 0 0 17.307042 0v-57.69014a8.653521 8.653521 0 0 0-8.653521-8.653522z" fill="#2288EE" p-id="4253"></path><path d="M598.535211 699.492958a14.422535 14.422535 0 0 1 14.422535 14.422535v28.84507a14.422535 14.422535 0 0 1-14.422535 14.422536 14.422535 14.422535 0 0 1-14.422535-14.422536v-28.84507a14.422535 14.422535 0 0 1 14.422535-14.422535z" fill="#2288EE" p-id="4254"></path><path d="M598.535211 762.952113a20.191549 20.191549 0 0 1-20.191549-20.19155v-28.84507a20.191549 20.191549 0 0 1 40.383099 0v28.84507a20.191549 20.191549 0 0 1-20.19155 20.19155z m0-57.690141a8.653521 8.653521 0 0 0-8.653521 8.653521v28.84507a8.653521 8.653521 0 0 0 17.307042 0v-28.84507a8.653521 8.653521 0 0 0-8.653521-8.653521z" fill="#2288EE" p-id="4255"></path><path d="M699.492958 627.380282a14.422535 14.422535 0 0 1 14.422535 14.422535v100.957746a14.422535 14.422535 0 0 1-14.422535 14.422536 14.422535 14.422535 0 0 1-14.422535-14.422536v-100.957746a14.422535 14.422535 0 0 1 14.422535-14.422535z" fill="#2288EE" p-id="4256"></path><path d="M699.492958 762.952113a20.191549 20.191549 0 0 1-20.19155-20.19155v-100.957746a20.191549 20.191549 0 0 1 40.383099 0v100.957746a20.191549 20.191549 0 0 1-20.191549 20.19155z m0-129.802817a8.653521 8.653521 0 0 0-8.653521 8.653521v100.957746a8.653521 8.653521 0 0 0 17.307042 0v-100.957746a8.653521 8.653521 0 0 0-8.653521-8.653521z" fill="#2288EE" p-id="4257"></path><path d="M468.732394 771.605634h259.605634a14.422535 14.422535 0 0 1 14.422535 14.422535 14.422535 14.422535 0 0 1-14.422535 14.422535h-259.605634a14.422535 14.422535 0 0 1-14.422535-14.422535 14.422535 14.422535 0 0 1 14.422535-14.422535z" fill="#2288EE" p-id="4258"></path><path d="M728.338028 806.219718h-259.605634a20.191549 20.191549 0 0 1 0-40.383098h259.605634a20.191549 20.191549 0 0 1 0 40.383098z m-259.605634-28.84507a8.653521 8.653521 0 0 0 0 17.307042h259.605634a8.653521 8.653521 0 0 0 0-17.307042z" fill="#2288EE" p-id="4259"></path></svg>